<svg xmlns="http://www.w3.org/2000/svg" xmlns:xlink="http://www.w3.org/1999/xlink" contentStyleType="text/css" data-diagram-type="CLASS" height="1096px" preserveAspectRatio="none" style="width:1627px;height:1096px;background:#FFFFFF;" version="1.1" viewBox="0 0 1627 1096" width="1627px" zoomAndPan="magnify"><defs/><g><!--class QuarantineUI--><g class="entity" data-entity="QuarantineUI" data-source-line="1" data-uid="ent0002" id="entity_QuarantineUI"><rect fill="#F1F1F1" height="162.0781" rx="2.5" ry="2.5" style="stroke:#181818;stroke-width:0.5;" width="249.9795" x="1010.59" y="7"/><ellipse cx="1084.8693" cy="23" fill="#ADD1B2" rx="11" ry="11" style="stroke:#181818;stroke-width:1;"/><path d="M1087.838,28.6406 Q1087.2599,28.9375 1086.6193,29.0781 Q1085.9787,29.2344 1085.2755,29.2344 Q1082.7755,29.2344 1081.4474,27.5938 Q1080.1349,25.9375 1080.1349,22.8125 Q1080.1349,19.6875 1081.4474,18.0313 Q1082.7755,16.375 1085.2755,16.375 Q1085.9787,16.375 1086.6193,16.5313 Q1087.2755,16.6875 1087.838,16.9844 L1087.838,19.7031 Q1087.213,19.125 1086.6193,18.8594 Q1086.0255,18.5781 1085.4005,18.5781 Q1084.0568,18.5781 1083.3693,19.6563 Q1082.6818,20.7188 1082.6818,22.8125 Q1082.6818,24.9063 1083.3693,25.9844 Q1084.0568,27.0469 1085.4005,27.0469 Q1086.0255,27.0469 1086.6193,26.7813 Q1087.213,26.5 1087.838,25.9219 L1087.838,28.6406 Z " fill="#000000"/><text fill="#000000" font-family="sans-serif" font-size="14" lengthAdjust="spacing" textLength="92.9209" x="1105.3693" y="27.8467">QuarantineUI</text><line style="stroke:#181818;stroke-width:0.5;" x1="1011.59" x2="1259.5695" y1="39" y2="39"/><rect fill="none" height="6" style="stroke:#C82930;stroke-width:1;" width="6" x="1018.59" y="49.6484"/><text fill="#000000" font-family="sans-serif" font-size="14" lengthAdjust="spacing" textLength="223.9795" x="1030.59" y="55.9951">controller: QuarantineController</text><rect fill="none" height="6" style="stroke:#C82930;stroke-width:1;" width="6" x="1018.59" y="65.9453"/><text fill="#000000" font-family="sans-serif" font-size="14" lengthAdjust="spacing" textLength="124.9336" x="1030.59" y="72.292">terminalIndex: int</text><rect fill="none" height="6" style="stroke:#C82930;stroke-width:1;" width="6" x="1018.59" y="82.2422"/><text fill="#000000" font-family="sans-serif" font-size="14" lengthAdjust="spacing" textLength="133.4307" x="1030.59" y="88.5889">SELECTED_MIN: int</text><line style="stroke:#181818;stroke-width:0.5;" x1="1011.59" x2="1259.5695" y1="95.8906" y2="95.8906"/><ellipse cx="1021.59" cy="109.5391" fill="#84BE84" rx="3" ry="3" style="stroke:#038048;stroke-width:1;"/><text fill="#000000" font-family="sans-serif" font-size="14" lengthAdjust="spacing" textLength="103.8447" x="1030.59" y="112.8857">QuarantineUI()</text><ellipse cx="1021.59" cy="125.8359" fill="#84BE84" rx="3" ry="3" style="stroke:#038048;stroke-width:1;"/><text fill="#000000" font-family="sans-serif" font-size="14" lengthAdjust="spacing" textLength="73.2197" x="1030.59" y="129.1826">run(): void</text><ellipse cx="1021.59" cy="142.1328" fill="#84BE84" rx="3" ry="3" style="stroke:#038048;stroke-width:1;"/><text fill="#000000" font-family="sans-serif" font-size="14" lengthAdjust="spacing" textLength="203.5537" x="1030.59" y="145.4795">listAvailableTerminals(): void</text><ellipse cx="1021.59" cy="158.4297" fill="#84BE84" rx="3" ry="3" style="stroke:#038048;stroke-width:1;"/><text fill="#000000" font-family="sans-serif" font-size="14" lengthAdjust="spacing" textLength="145.7148" x="1030.59" y="161.7764">doQuarantine(): void</text></g><!--class QuarantineController--><g class="entity" data-entity="QuarantineController" data-source-line="11" data-uid="ent0003" id="entity_QuarantineController"><rect fill="#F1F1F1" height="227.2656" rx="2.5" ry="2.5" style="stroke:#181818;stroke-width:0.5;" width="317.5938" x="976.78" y="229.07"/><ellipse cx="1057.468" cy="245.07" fill="#ADD1B2" rx="11" ry="11" style="stroke:#181818;stroke-width:1;"/><path d="M1060.4367,250.7106 Q1059.8586,251.0075 1059.218,251.1481 Q1058.5774,251.3044 1057.8742,251.3044 Q1055.3742,251.3044 1054.0461,249.6638 Q1052.7336,248.0075 1052.7336,244.8825 Q1052.7336,241.7575 1054.0461,240.1013 Q1055.3742,238.445 1057.8742,238.445 Q1058.5774,238.445 1059.218,238.6013 Q1059.8742,238.7575 1060.4367,239.0544 L1060.4367,241.7731 Q1059.8117,241.195 1059.218,240.9294 Q1058.6242,240.6481 1057.9992,240.6481 Q1056.6555,240.6481 1055.968,241.7263 Q1055.2805,242.7888 1055.2805,244.8825 Q1055.2805,246.9763 1055.968,248.0544 Q1056.6555,249.1169 1057.9992,249.1169 Q1058.6242,249.1169 1059.218,248.8513 Q1059.8117,248.57 1060.4367,247.9919 L1060.4367,250.7106 Z " fill="#000000"/><text fill="#000000" font-family="sans-serif" font-size="14" lengthAdjust="spacing" textLength="147.7178" x="1077.968" y="249.9167">QuarantineController</text><line style="stroke:#181818;stroke-width:0.5;" x1="977.78" x2="1293.3738" y1="261.07" y2="261.07"/><rect fill="none" height="6" style="stroke:#C82930;stroke-width:1;" width="6" x="984.78" y="271.7184"/><text fill="#000000" font-family="sans-serif" font-size="14" lengthAdjust="spacing" textLength="240.5498" x="996.78" y="278.0651">terminalRepo: TerminalRepository</text><rect fill="none" height="6" style="stroke:#C82930;stroke-width:1;" width="6" x="984.78" y="288.0153"/><text fill="#000000" font-family="sans-serif" font-size="14" lengthAdjust="spacing" textLength="129.6846" x="996.78" y="294.362">terminal: Terminal</text><rect fill="none" height="6" style="stroke:#C82930;stroke-width:1;" width="6" x="984.78" y="304.3122"/><text fill="#000000" font-family="sans-serif" font-size="14" lengthAdjust="spacing" textLength="220.0215" x="996.78" y="310.6589">warehouses: List&lt;Warehouse&gt;</text><rect fill="none" height="6" style="stroke:#C82930;stroke-width:1;" width="6" x="984.78" y="320.6091"/><text fill="#000000" font-family="sans-serif" font-size="14" lengthAdjust="spacing" textLength="121.1396" x="996.78" y="326.9557">LOGS_DIR: String</text><line style="stroke:#181818;stroke-width:0.5;" x1="977.78" x2="1293.3738" y1="334.2575" y2="334.2575"/><ellipse cx="987.78" cy="347.9059" fill="#84BE84" rx="3" ry="3" style="stroke:#038048;stroke-width:1;"/><text fill="#000000" font-family="sans-serif" font-size="14" lengthAdjust="spacing" textLength="158.6416" x="996.78" y="351.2526">QuarantineController()</text><ellipse cx="987.78" cy="364.2028" fill="#84BE84" rx="3" ry="3" style="stroke:#038048;stroke-width:1;"/><text fill="#000000" font-family="sans-serif" font-size="14" lengthAdjust="spacing" textLength="226.6318" x="996.78" y="367.5495">listAvailableTerminals(): String[]</text><ellipse cx="987.78" cy="380.4997" fill="#84BE84" rx="3" ry="3" style="stroke:#038048;stroke-width:1;"/><text fill="#000000" font-family="sans-serif" font-size="14" lengthAdjust="spacing" textLength="291.5938" x="996.78" y="383.8464">getTerminal(terminalIndex: int): Terminal</text><ellipse cx="987.78" cy="396.7966" fill="#84BE84" rx="3" ry="3" style="stroke:#038048;stroke-width:1;"/><text fill="#000000" font-family="sans-serif" font-size="14" lengthAdjust="spacing" textLength="157.8691" x="996.78" y="400.1432">doQuarantine(): String</text><rect fill="#F24D5C" height="6" style="stroke:#C82930;stroke-width:1;" width="6" x="984.78" y="410.0934"/><text fill="#000000" font-family="sans-serif" font-size="14" lengthAdjust="spacing" textLength="191.8438" x="996.78" y="416.4401">createLogsDirectory(): void</text><rect fill="#F24D5C" height="6" style="stroke:#C82930;stroke-width:1;" width="6" x="984.78" y="426.3903"/><text fill="#000000" font-family="sans-serif" font-size="14" lengthAdjust="spacing" textLength="231.0273" x="996.78" y="432.737">writeToFile(content: String): void</text><rect fill="#F24D5C" height="6" style="stroke:#C82930;stroke-width:1;" width="6" x="984.78" y="442.6872"/><text fill="#000000" font-family="sans-serif" font-size="14" lengthAdjust="spacing" textLength="191.0439" x="996.78" y="449.0339">generateFileName(): String</text></g><!--class Terminal--><g class="entity" data-entity="Terminal" data-source-line="25" data-uid="ent0004" id="entity_Terminal"><rect fill="#F1F1F1" height="227.2656" rx="2.5" ry="2.5" style="stroke:#181818;stroke-width:0.5;" width="387.0127" x="617.07" y="516.34"/><ellipse cx="775.4313" cy="532.34" fill="#ADD1B2" rx="11" ry="11" style="stroke:#181818;stroke-width:1;"/><path d="M778.4001,537.9806 Q777.822,538.2775 777.1813,538.4181 Q776.5407,538.5744 775.8376,538.5744 Q773.3376,538.5744 772.0095,536.9338 Q770.697,535.2775 770.697,532.1525 Q770.697,529.0275 772.0095,527.3713 Q773.3376,525.715 775.8376,525.715 Q776.5407,525.715 777.1813,525.8713 Q777.8376,526.0275 778.4001,526.3244 L778.4001,529.0431 Q777.7751,528.465 777.1813,528.1994 Q776.5876,527.9181 775.9626,527.9181 Q774.6188,527.9181 773.9313,528.9963 Q773.2438,530.0588 773.2438,532.1525 Q773.2438,534.2463 773.9313,535.3244 Q774.6188,536.3869 775.9626,536.3869 Q776.5876,536.3869 777.1813,536.1213 Q777.7751,535.84 778.4001,535.2619 L778.4001,537.9806 Z " fill="#000000"/><text fill="#000000" font-family="sans-serif" font-size="14" lengthAdjust="spacing" textLength="61.79" x="795.9313" y="537.1867">Terminal</text><line style="stroke:#181818;stroke-width:0.5;" x1="618.07" x2="1003.0827" y1="548.34" y2="548.34"/><rect fill="none" height="6" style="stroke:#C82930;stroke-width:1;" width="6" x="625.07" y="558.9884"/><text fill="#000000" font-family="sans-serif" font-size="14" lengthAdjust="spacing" textLength="220.0215" x="637.07" y="565.3351">warehouses: List&lt;Warehouse&gt;</text><rect fill="none" height="6" style="stroke:#C82930;stroke-width:1;" width="6" x="625.07" y="575.2853"/><text fill="#000000" font-family="sans-serif" font-size="14" lengthAdjust="spacing" textLength="213.5957" x="637.07" y="581.632">orders: PriorityQueue&lt;Order&gt;</text><rect fill="none" height="6" style="stroke:#C82930;stroke-width:1;" width="6" x="625.07" y="591.5822"/><text fill="#000000" font-family="sans-serif" font-size="14" lengthAdjust="spacing" textLength="361.0127" x="637.07" y="597.9289">itemHash: HashMap&lt;String, PriorityQueue&lt;Box&gt;&gt;</text><rect fill="none" height="6" style="stroke:#C82930;stroke-width:1;" width="6" x="625.07" y="607.8791"/><text fill="#000000" font-family="sans-serif" font-size="14" lengthAdjust="spacing" textLength="124.4072" x="637.07" y="614.2257">plans: List&lt;Plan&gt;</text><line style="stroke:#181818;stroke-width:0.5;" x1="618.07" x2="1003.0827" y1="621.5275" y2="621.5275"/><ellipse cx="628.07" cy="635.1759" fill="#84BE84" rx="3" ry="3" style="stroke:#038048;stroke-width:1;"/><text fill="#000000" font-family="sans-serif" font-size="14" lengthAdjust="spacing" textLength="72.7139" x="637.07" y="638.5226">Terminal()</text><ellipse cx="628.07" cy="651.4728" fill="#84BE84" rx="3" ry="3" style="stroke:#038048;stroke-width:1;"/><text fill="#000000" font-family="sans-serif" font-size="14" lengthAdjust="spacing" textLength="256.3271" x="637.07" y="654.8195">getWarehouses(): List&lt;Warehouse&gt;</text><ellipse cx="628.07" cy="667.7697" fill="#84BE84" rx="3" ry="3" style="stroke:#038048;stroke-width:1;"/><text fill="#000000" font-family="sans-serif" font-size="14" lengthAdjust="spacing" textLength="249.9629" x="637.07" y="671.1164">getOrders(): PriorityQueue&lt;Order&gt;</text><ellipse cx="628.07" cy="684.0666" fill="#84BE84" rx="3" ry="3" style="stroke:#038048;stroke-width:1;"/><text fill="#000000" font-family="sans-serif" font-size="14" lengthAdjust="spacing" textLength="226.9258" x="637.07" y="687.4132">getOrder(orderIndex: int): Order</text><ellipse cx="628.07" cy="700.3634" fill="#84BE84" rx="3" ry="3" style="stroke:#038048;stroke-width:1;"/><text fill="#000000" font-family="sans-serif" font-size="14" lengthAdjust="spacing" textLength="192.4043" x="637.07" y="703.7101">restockWarehouse(): String</text><ellipse cx="628.07" cy="716.6603" fill="#84BE84" rx="3" ry="3" style="stroke:#038048;stroke-width:1;"/><text fill="#000000" font-family="sans-serif" font-size="14" lengthAdjust="spacing" textLength="221.6895" x="637.07" y="720.007">addToItemHash(box: Box): void</text><ellipse cx="628.07" cy="732.9572" fill="#84BE84" rx="3" ry="3" style="stroke:#038048;stroke-width:1;"/><text fill="#000000" font-family="sans-serif" font-size="14" lengthAdjust="spacing" textLength="341.6807" x="637.07" y="736.3039">getWarehouse(warehouseId: String): Warehouse</text></g><!--class TerminalRepository--><g class="entity" data-entity="TerminalRepository" data-source-line="39" data-uid="ent0005" id="entity_TerminalRepository"><rect fill="#F1F1F1" height="113.1875" rx="2.5" ry="2.5" style="stroke:#181818;stroke-width:0.5;" width="317.5938" x="1302.78" y="573.38"/><ellipse cx="1388.8957" cy="589.38" fill="#ADD1B2" rx="11" ry="11" style="stroke:#181818;stroke-width:1;"/><path d="M1391.8645,595.0206 Q1391.2863,595.3175 1390.6457,595.4581 Q1390.0051,595.6144 1389.302,595.6144 Q1386.802,595.6144 1385.4738,593.9738 Q1384.1613,592.3175 1384.1613,589.1925 Q1384.1613,586.0675 1385.4738,584.4113 Q1386.802,582.755 1389.302,582.755 Q1390.0051,582.755 1390.6457,582.9113 Q1391.302,583.0675 1391.8645,583.3644 L1391.8645,586.0831 Q1391.2395,585.505 1390.6457,585.2394 Q1390.052,584.9581 1389.427,584.9581 Q1388.0832,584.9581 1387.3957,586.0363 Q1386.7082,587.0988 1386.7082,589.1925 Q1386.7082,591.2863 1387.3957,592.3644 Q1388.0832,593.4269 1389.427,593.4269 Q1390.052,593.4269 1390.6457,593.1613 Q1391.2395,592.88 1391.8645,592.3019 L1391.8645,595.0206 Z " fill="#000000"/><text fill="#000000" font-family="sans-serif" font-size="14" lengthAdjust="spacing" textLength="136.8623" x="1409.3957" y="594.2267">TerminalRepository</text><line style="stroke:#181818;stroke-width:0.5;" x1="1303.78" x2="1619.3738" y1="605.38" y2="605.38"/><rect fill="none" height="6" style="stroke:#C82930;stroke-width:1;" width="6" x="1310.78" y="616.0284"/><text fill="#000000" font-family="sans-serif" font-size="14" lengthAdjust="spacing" textLength="205.3379" x="1322.78" y="622.3751">instance: TerminalRepository</text><line style="stroke:#181818;stroke-width:0.5;" x1="1303.78" x2="1619.3738" y1="629.6769" y2="629.6769"/><ellipse cx="1313.78" cy="643.3253" fill="#84BE84" rx="3" ry="3" style="stroke:#038048;stroke-width:1;"/><text fill="#000000" font-family="sans-serif" font-size="14" lengthAdjust="spacing" textLength="239.4902" x="1322.78" y="646.672">getInstance(): TerminalRepository</text><ellipse cx="1313.78" cy="659.6222" fill="#84BE84" rx="3" ry="3" style="stroke:#038048;stroke-width:1;"/><text fill="#000000" font-family="sans-serif" font-size="14" lengthAdjust="spacing" textLength="162.4424" x="1322.78" y="662.9689">listTerminals(): String[]</text><ellipse cx="1313.78" cy="675.9191" fill="#84BE84" rx="3" ry="3" style="stroke:#038048;stroke-width:1;"/><text fill="#000000" font-family="sans-serif" font-size="14" lengthAdjust="spacing" textLength="291.5938" x="1322.78" y="679.2657">getTerminal(terminalIndex: int): Terminal</text></g><!--class RestockService--><g class="entity" data-entity="RestockService" data-source-line="46" data-uid="ent0006" id="entity_RestockService"><rect fill="#F1F1F1" height="64.2969" rx="2.5" ry="2.5" style="stroke:#181818;stroke-width:0.5;" width="513.1563" x="7" y="828.05"/><ellipse cx="205.7104" cy="844.05" fill="#ADD1B2" rx="11" ry="11" style="stroke:#181818;stroke-width:1;"/><path d="M208.6792,849.6906 Q208.1011,849.9875 207.4604,850.1281 Q206.8198,850.2844 206.1167,850.2844 Q203.6167,850.2844 202.2886,848.6438 Q200.9761,846.9875 200.9761,843.8625 Q200.9761,840.7375 202.2886,839.0813 Q203.6167,837.425 206.1167,837.425 Q206.8198,837.425 207.4604,837.5813 Q208.1167,837.7375 208.6792,838.0344 L208.6792,840.7531 Q208.0542,840.175 207.4604,839.9094 Q206.8667,839.6281 206.2417,839.6281 Q204.8979,839.6281 204.2104,840.7063 Q203.5229,841.7688 203.5229,843.8625 Q203.5229,845.9563 204.2104,847.0344 Q204.8979,848.0969 206.2417,848.0969 Q206.8667,848.0969 207.4604,847.8313 Q208.0542,847.55 208.6792,846.9719 L208.6792,849.6906 Z " fill="#000000"/><text fill="#000000" font-family="sans-serif" font-size="14" lengthAdjust="spacing" textLength="107.2354" x="226.2104" y="848.8967">RestockService</text><line style="stroke:#181818;stroke-width:0.5;" x1="8" x2="519.1563" y1="860.05" y2="860.05"/><line style="stroke:#181818;stroke-width:0.5;" x1="8" x2="519.1563" y1="868.05" y2="868.05"/><ellipse cx="18" cy="881.6984" fill="#84BE84" rx="3" ry="3" style="stroke:#038048;stroke-width:1;"/><text fill="#000000" font-family="sans-serif" font-size="14" lengthAdjust="spacing" textLength="487.1563" x="27" y="885.0451">restock(warehouse: Warehouse, index: int, boxes: List&lt;Box&gt;): String</text></g><!--class Warehouse--><g class="entity" data-entity="Warehouse" data-source-line="50" data-uid="ent0007" id="entity_Warehouse"><rect fill="#F1F1F1" height="113.1875" rx="2.5" ry="2.5" style="stroke:#181818;stroke-width:0.5;" width="190.835" x="441.16" y="976.79"/><ellipse cx="492.8226" cy="992.79" fill="#ADD1B2" rx="11" ry="11" style="stroke:#181818;stroke-width:1;"/><path d="M495.7913,998.4306 Q495.2132,998.7275 494.5726,998.8681 Q493.932,999.0244 493.2288,999.0244 Q490.7288,999.0244 489.4007,997.3838 Q488.0882,995.7275 488.0882,992.6025 Q488.0882,989.4775 489.4007,987.8213 Q490.7288,986.165 493.2288,986.165 Q493.932,986.165 494.5726,986.3213 Q495.2288,986.4775 495.7913,986.7744 L495.7913,989.4931 Q495.1663,988.915 494.5726,988.6494 Q493.9788,988.3681 493.3538,988.3681 Q492.0101,988.3681 491.3226,989.4463 Q490.6351,990.5088 490.6351,992.6025 Q490.6351,994.6963 491.3226,995.7744 Q492.0101,996.8369 493.3538,996.8369 Q493.9788,996.8369 494.5726,996.5713 Q495.1663,996.29 495.7913,995.7119 L495.7913,998.4306 Z " fill="#000000"/><text fill="#000000" font-family="sans-serif" font-size="14" lengthAdjust="spacing" textLength="79.0098" x="513.3226" y="997.6367">Warehouse</text><line style="stroke:#181818;stroke-width:0.5;" x1="442.16" x2="630.995" y1="1008.79" y2="1008.79"/><rect fill="none" height="6" style="stroke:#C82930;stroke-width:1;" width="6" x="449.16" y="1019.4384"/><text fill="#000000" font-family="sans-serif" font-size="14" lengthAdjust="spacing" textLength="63.7246" x="461.16" y="1025.7851">id: String</text><rect fill="none" height="6" style="stroke:#C82930;stroke-width:1;" width="6" x="449.16" y="1035.7353"/><text fill="#000000" font-family="sans-serif" font-size="14" lengthAdjust="spacing" textLength="129.9238" x="461.16" y="1042.082">aisles: List&lt;Aisle&gt;</text><line style="stroke:#181818;stroke-width:0.5;" x1="442.16" x2="630.995" y1="1049.3838" y2="1049.3838"/><ellipse cx="452.16" cy="1063.0322" fill="#84BE84" rx="3" ry="3" style="stroke:#038048;stroke-width:1;"/><text fill="#000000" font-family="sans-serif" font-size="14" lengthAdjust="spacing" textLength="97.877" x="461.16" y="1066.3789">getId(): String</text><ellipse cx="452.16" cy="1079.3291" fill="#84BE84" rx="3" ry="3" style="stroke:#038048;stroke-width:1;"/><text fill="#000000" font-family="sans-serif" font-size="14" lengthAdjust="spacing" textLength="164.835" x="461.16" y="1082.6757">getAisles(): List&lt;Aisle&gt;</text></g><!--class Box--><g class="entity" data-entity="Box" data-source-line="57" data-uid="ent0008" id="entity_Box"><rect fill="#F1F1F1" height="113.1875" rx="2.5" ry="2.5" style="stroke:#181818;stroke-width:0.5;" width="177.6689" x="863.74" y="803.6"/><ellipse cx="935.0969" cy="819.6" fill="#ADD1B2" rx="11" ry="11" style="stroke:#181818;stroke-width:1;"/><path d="M938.0657,825.2406 Q937.4876,825.5375 936.8469,825.6781 Q936.2063,825.8344 935.5032,825.8344 Q933.0032,825.8344 931.6751,824.1938 Q930.3626,822.5375 930.3626,819.4125 Q930.3626,816.2875 931.6751,814.6313 Q933.0032,812.975 935.5032,812.975 Q936.2063,812.975 936.8469,813.1313 Q937.5032,813.2875 938.0657,813.5844 L938.0657,816.3031 Q937.4407,815.725 936.8469,815.4594 Q936.2532,815.1781 935.6282,815.1781 Q934.2844,815.1781 933.5969,816.2563 Q932.9094,817.3188 932.9094,819.4125 Q932.9094,821.5063 933.5969,822.5844 Q934.2844,823.6469 935.6282,823.6469 Q936.2532,823.6469 936.8469,823.3813 Q937.4407,823.1 938.0657,822.5219 L938.0657,825.2406 Z " fill="#000000"/><text fill="#000000" font-family="sans-serif" font-size="14" lengthAdjust="spacing" textLength="26.4551" x="955.5969" y="824.4467">Box</text><line style="stroke:#181818;stroke-width:0.5;" x1="864.74" x2="1040.4089" y1="835.6" y2="835.6"/><rect fill="none" height="6" style="stroke:#C82930;stroke-width:1;" width="6" x="871.74" y="846.2484"/><text fill="#000000" font-family="sans-serif" font-size="14" lengthAdjust="spacing" textLength="75.2227" x="883.74" y="852.5951">sku: String</text><rect fill="none" height="6" style="stroke:#C82930;stroke-width:1;" width="6" x="871.74" y="862.5453"/><text fill="#000000" font-family="sans-serif" font-size="14" lengthAdjust="spacing" textLength="115.6777" x="883.74" y="868.892">condition: String</text><line style="stroke:#181818;stroke-width:0.5;" x1="864.74" x2="1040.4089" y1="876.1938" y2="876.1938"/><ellipse cx="874.74" cy="889.8422" fill="#84BE84" rx="3" ry="3" style="stroke:#038048;stroke-width:1;"/><text fill="#000000" font-family="sans-serif" font-size="14" lengthAdjust="spacing" textLength="110.7285" x="883.74" y="893.1889">getSku(): String</text><ellipse cx="874.74" cy="906.1391" fill="#84BE84" rx="3" ry="3" style="stroke:#038048;stroke-width:1;"/><text fill="#000000" font-family="sans-serif" font-size="14" lengthAdjust="spacing" textLength="151.6689" x="883.74" y="909.4857">getCondition(): String</text></g><g class="entity" data-entity="GMN16" data-source-line="74" data-uid="ent0017" id="entity_GMN16"><path d="M1329.04,322.57 L1329.04,338.71 L1294.71,342.71 L1329.04,346.71 L1329.04,362.8356 A0,0 0 0 0 1329.04,362.8356 L1540.1079,362.8356 A0,0 0 0 0 1540.1079,362.8356 L1540.1079,332.57 L1530.1079,322.57 L1329.04,322.57 A0,0 0 0 0 1329.04,322.57" fill="#FEFFDD" style="stroke:#181818;stroke-width:0.5;"/><path d="M1530.1079,322.57 L1530.1079,332.57 L1540.1079,332.57 L1530.1079,322.57" fill="#FEFFDD" style="stroke:#181818;stroke-width:0.5;"/><text fill="#000000" font-family="sans-serif" font-size="13" lengthAdjust="spacing" textLength="190.0679" x="1335.04" y="339.6369">Handles quarantine workflow</text><text fill="#000000" font-family="sans-serif" font-size="13" lengthAdjust="spacing" textLength="114.061" x="1335.04" y="354.7697">and audit logging</text></g><g class="entity" data-entity="GMN19" data-source-line="79" data-uid="ent0020" id="entity_GMN19"><path d="M1039.57,609.84 L1039.57,625.97 L1004.52,629.97 L1039.57,633.97 L1039.57,650.1056 A0,0 0 0 0 1039.57,650.1056 L1267.5798,650.1056 A0,0 0 0 0 1267.5798,650.1056 L1267.5798,619.84 L1257.5798,609.84 L1039.57,609.84 A0,0 0 0 0 1039.57,609.84" fill="#FEFFDD" style="stroke:#181818;stroke-width:0.5;"/><path d="M1257.5798,609.84 L1257.5798,619.84 L1267.5798,619.84 L1257.5798,609.84" fill="#FEFFDD" style="stroke:#181818;stroke-width:0.5;"/><text fill="#000000" font-family="sans-serif" font-size="13" lengthAdjust="spacing" textLength="207.0098" x="1045.57" y="626.9069">Manages warehouse operations</text><text fill="#000000" font-family="sans-serif" font-size="13" lengthAdjust="spacing" textLength="111.4775" x="1045.57" y="642.0397">and item storage</text></g><g class="entity" data-entity="GMN22" data-source-line="84" data-uid="ent0023" id="entity_GMN22"><path d="M555.53,840.07 L555.53,856.2 L520.33,860.2 L555.53,864.2 L555.53,880.3356 A0,0 0 0 0 555.53,880.3356 L757.635,880.3356 A0,0 0 0 0 757.635,880.3356 L757.635,850.07 L747.635,840.07 L555.53,840.07 A0,0 0 0 0 555.53,840.07" fill="#FEFFDD" style="stroke:#181818;stroke-width:0.5;"/><path d="M747.635,840.07 L747.635,850.07 L757.635,850.07 L747.635,840.07" fill="#FEFFDD" style="stroke:#181818;stroke-width:0.5;"/><text fill="#000000" font-family="sans-serif" font-size="13" lengthAdjust="spacing" textLength="181.105" x="561.53" y="857.1369">Implements LIFO inspection</text><text fill="#000000" font-family="sans-serif" font-size="13" lengthAdjust="spacing" textLength="162.8682" x="561.53" y="872.2697">and restock/discard logic</text></g><!--link QuarantineUI to QuarantineController--><g class="link" data-entity-1="QuarantineUI" data-entity-2="QuarantineController" data-source-line="65" data-uid="lnk9" id="link_QuarantineUI_QuarantineController"><path codeLine="65" d="M1135.58,169.33 C1135.58,188.26 1135.58,202.79 1135.58,222.86" fill="none" id="QuarantineUI-to-QuarantineController" style="stroke:#181818;stroke-width:1;"/><polygon fill="#181818" points="1135.58,228.86,1139.58,219.86,1135.58,223.86,1131.58,219.86,1135.58,228.86" style="stroke:#181818;stroke-width:1;"/></g><!--link QuarantineController to TerminalRepository--><g class="link" data-entity-1="QuarantineController" data-entity-2="TerminalRepository" data-source-line="66" data-uid="lnk10" id="link_QuarantineController_TerminalRepository"><path codeLine="66" d="M1264.42,456.45 C1310.16,496.48 1355.1448,535.8387 1393.0948,569.0487" fill="none" id="QuarantineController-to-TerminalRepository" style="stroke:#181818;stroke-width:1;"/><polygon fill="#181818" points="1397.61,573,1393.4713,564.0629,1393.8473,569.7073,1388.203,570.0832,1397.61,573" style="stroke:#181818;stroke-width:1;"/></g><!--link QuarantineController to Terminal--><g class="link" data-entity-1="QuarantineController" data-entity-2="Terminal" data-source-line="67" data-uid="lnk11" id="link_QuarantineController_Terminal"><path codeLine="67" d="M1007.13,456.45 C984.86,476 966.2089,492.3615 943.9289,511.9215" fill="none" id="QuarantineController-to-Terminal" style="stroke:#181818;stroke-width:1;"/><polygon fill="#181818" points="939.42,515.88,948.8224,512.9482,943.1774,512.5813,943.5444,506.9363,939.42,515.88" style="stroke:#181818;stroke-width:1;"/></g><!--link Terminal to Warehouse--><g class="link" data-entity-1="Terminal" data-entity-2="Warehouse" data-source-line="68" data-uid="lnk12" id="link_Terminal_Warehouse"><path codeLine="68" d="M821.02,743.85 C820.6,800.5 810.92,867.4 775.58,916.79 C741.72,964.12 688.8191,990.9735 638.1191,1007.9635" fill="none" id="Terminal-to-Warehouse" style="stroke:#181818;stroke-width:1;"/><polygon fill="#181818" points="632.43,1009.87,642.2346,1010.803,637.1709,1008.2813,639.6926,1003.2176,632.43,1009.87" style="stroke:#181818;stroke-width:1;"/></g><!--link Terminal to Box--><g class="link" data-entity-1="Terminal" data-entity-2="Box" data-source-line="69" data-uid="lnk13" id="link_Terminal_Box"><path codeLine="69" d="M880.95,744.08 C893.79,764.71 903.4807,780.2754 914.6907,798.2954" fill="none" id="Terminal-to-Box" style="stroke:#181818;stroke-width:1;"/><polygon fill="#181818" points="917.86,803.39,916.5025,793.6352,915.2189,799.1445,909.7096,797.8609,917.86,803.39" style="stroke:#181818;stroke-width:1;"/></g><!--link Terminal to RestockService--><g class="link" data-entity-1="Terminal" data-entity-2="RestockService" data-source-line="70" data-uid="lnk14" id="link_Terminal_RestockService"><path codeLine="70" d="M616.96,711.76 C521.07,751.77 416.3571,795.4491 344.8571,825.2891" fill="none" id="Terminal-to-RestockService" style="stroke:#181818;stroke-width:1;stroke-dasharray:7,7;"/><polygon fill="#181818" points="339.32,827.6,349.1663,827.8251,343.9343,825.6743,346.0851,820.4423,339.32,827.6" style="stroke:#181818;stroke-width:1;"/></g><!--link RestockService to Warehouse--><g class="link" data-entity-1="RestockService" data-entity-2="Warehouse" data-source-line="71" data-uid="lnk15" id="link_RestockService_Warehouse"><path codeLine="71" d="M313.97,892.8 C351.25,916.18 397.9367,945.4526 442.1767,973.1926" fill="none" id="RestockService-to-Warehouse" style="stroke:#181818;stroke-width:1;"/><polygon fill="#181818" points="447.26,976.38,441.7599,968.21,443.0239,973.7238,437.51,974.9878,447.26,976.38" style="stroke:#181818;stroke-width:1;"/></g><!--SRC=[hLNBRjim4BphAtYhZCJfNJ0CfBRJ2B3pieCUYY9Wn8rCc2PLaie3HV-zIqgY7hQHIoz1j3kSdPrTqfcWnf3xacegBPVmc98_4I5ZaYbfjH82TD99pqBKWopeFPTKf9B1UqAuj3wyNYmNiyrY_hHARvheMQz8FF8XNSfub91NnPd_5jpOorVA1NqMiAd9JG_2LCiJ4d-ZA1iqqYgj6sgqFa2X4hBfV1bkbVxeWLg03xzH3LjL6Z09MQB6oOycCFNvvUttzTCyVKZ8scekyq6_hPQwxzDzLkT__lAm76oJZ0-j7lL47ZeJfE0mDL0BIvMRETUGkNOxfc9_cblOg2ik87Q31scRyrrO3X8q4ZdS3TrtguG9D99grpzpJca66dDtcYiKyN5VGWcJMnUj02XiVqtDDY7kxueMawhY-U38D_K-hKuKWigcsXt-F_Nk12D7ZRL1YJV-K9m7UIKUS49XYufzBxtv-7YrwM2iodQXG6z0PuGojb5ftMhyh9016-hkVLTm75nDMMTE8NyuZNRDwxbmQIoL6Pou2RvUMcFYqKcKM-J_iRz1y4FbqnhqAy_0YmtcjMrtUZr7geRndA1pOTFSHXnPq72oSOBrhWhbHWIAI_SHffoomTGmvX7j0jK7GZ7KK9Snkx9_9PLat78bXuphNNbOPjQW-rVk2_ebg8kRBIzCr7l7n-FfyPVxw2Ffq4U6_2as2XVUHTiLx8NHXZPmSJ4TZ3aQJBtF54bbWMYURorHBwT-ZAwfP3W9yZkaoPlIknUXtZ2BIK9Bj908bUVEFS288nxITvxK5PKqHygmTaGLxlrpTjUSxdKYg5qZy2Jbe5b2qdqXO8-Fh27BzEhMNSO2NsNahMdhXV_AkCcePauqpmB_Fm00]--></g></svg>