<svg xmlns="http://www.w3.org/2000/svg" xmlns:xlink="http://www.w3.org/1999/xlink" contentStyleType="text/css" data-diagram-type="SEQUENCE" height="784px" preserveAspectRatio="none" style="width:809px;height:784px;background:#FFFFFF;" version="1.1" viewBox="0 0 809 784" width="809px" zoomAndPan="magnify"><defs/><g><g><title>FreightManager</title><rect fill="#FFFFFF" height="597.5902" style="stroke:#181818;stroke-width:1;" width="10" x="71.1088" y="94.0679"/></g><g><title>System</title><rect fill="#FFFFFF" height="423.0602" style="stroke:#181818;stroke-width:1;" width="10" x="253.5169" y="144.4799"/></g><g><title>System</title><rect fill="#FFFFFF" height="76.412" style="stroke:#181818;stroke-width:1;" width="10" x="253.5169" y="599.2461"/></g><rect fill="none" height="582.5902" style="stroke:#000000;stroke-width:1.5;" width="793.1214" x="10" y="101.0679"/><rect fill="none" height="377.3541" style="stroke:#000000;stroke-width:1.5;" width="575.3903" x="217.731" y="159.4799"/><g><title>FreightManager</title><rect fill="#000000" fill-opacity="0.00000" height="616.5902" width="8" x="72.1088" y="84.0679"/><line style="stroke:#181818;stroke-width:0.5;stroke-dasharray:5,5;" x1="76" x2="76" y1="84.0679" y2="700.6582"/></g><g><title>System</title><rect fill="#000000" fill-opacity="0.00000" height="616.5902" width="8" x="254.5169" y="84.0679"/><line style="stroke:#181818;stroke-width:0.5;stroke-dasharray:5,5;" x1="257.731" x2="257.731" y1="84.0679" y2="700.6582"/></g><g class="participant participant-head" data-participant="FreightManager"><text fill="#000000" font-family="sans-serif" font-size="14" lengthAdjust="spacing" textLength="106.2176" x="20" y="79.9659">FreightManager</text><ellipse cx="76.1088" cy="13.5" fill="#E2E2F0" rx="8" ry="8" style="stroke:#181818;stroke-width:0.5;"/><path d="M76.1088,21.5 L76.1088,48.5 M63.1088,29.5 L89.1088,29.5 M76.1088,48.5 L63.1088,63.5 M76.1088,48.5 L89.1088,63.5" fill="none" style="stroke:#181818;stroke-width:0.5;"/></g><g class="participant participant-tail" data-participant="FreightManager"><text fill="#000000" font-family="sans-serif" font-size="14" lengthAdjust="spacing" textLength="106.2176" x="20" y="714.6241">FreightManager</text><ellipse cx="76.1088" cy="727.2261" fill="#E2E2F0" rx="8" ry="8" style="stroke:#181818;stroke-width:0.5;"/><path d="M76.1088,735.2261 L76.1088,762.2261 M63.1088,743.2261 L89.1088,743.2261 M76.1088,762.2261 L63.1088,777.2261 M76.1088,762.2261 L89.1088,777.2261" fill="none" style="stroke:#181818;stroke-width:0.5;"/></g><g class="participant participant-head" data-participant="System"><rect fill="#E2E2F0" height="33.0679" rx="2.5" ry="2.5" style="stroke:#181818;stroke-width:0.5;" width="61.5718" x="227.731" y="50"/><text fill="#000000" font-family="sans-serif" font-size="14" lengthAdjust="spacing" textLength="47.5718" x="234.731" y="71.9659">System</text></g><g class="participant participant-tail" data-participant="System"><rect fill="#E2E2F0" height="33.0679" rx="2.5" ry="2.5" style="stroke:#181818;stroke-width:0.5;" width="61.5718" x="227.731" y="699.6582"/><text fill="#000000" font-family="sans-serif" font-size="14" lengthAdjust="spacing" textLength="47.5718" x="234.731" y="721.6241">System</text></g><g><title>FreightManager</title><rect fill="#FFFFFF" height="597.5902" style="stroke:#181818;stroke-width:1;" width="10" x="71.1088" y="94.0679"/></g><g><title>System</title><rect fill="#FFFFFF" height="423.0602" style="stroke:#181818;stroke-width:1;" width="10" x="253.5169" y="144.4799"/></g><g><title>System</title><rect fill="#FFFFFF" height="76.412" style="stroke:#181818;stroke-width:1;" width="10" x="253.5169" y="599.2461"/></g><path d="M10,101.0679 L83.288,101.0679 L83.288,110.7739 L73.288,120.7739 L10,120.7739 L10,101.0679" fill="#EEEEEE" style="stroke:#000000;stroke-width:1.5;"/><rect fill="none" height="582.5902" style="stroke:#000000;stroke-width:1.5;" width="793.1214" x="10" y="101.0679"/><text fill="#000000" font-family="sans-serif" font-size="13" font-weight="bold" lengthAdjust="spacing" textLength="28.288" x="25" y="115.9649">loop</text><text fill="#000000" font-family="sans-serif" font-size="11" font-weight="bold" lengthAdjust="spacing" textLength="115.3012" x="98.288" y="114.8268">[until input == "exit"]</text><g class="message" data-participant-1="FreightManager" data-participant-2="System"><polygon fill="#181818" points="241.5169,140.4799,251.5169,144.4799,241.5169,148.4799,245.5169,144.4799" style="stroke:#181818;stroke-width:1;"/><line style="stroke:#181818;stroke-width:1;" x1="81.1088" x2="247.5169" y1="144.4799" y2="144.4799"/><text fill="#000000" font-family="sans-serif" font-size="13" lengthAdjust="spacing" textLength="34.06" x="88.1088" y="138.6709">Login</text></g><path d="M217.731,159.4799 L280.19,159.4799 L280.19,169.186 L270.19,179.186 L217.731,179.186 L217.731,159.4799" fill="#EEEEEE" style="stroke:#000000;stroke-width:1.5;"/><rect fill="none" height="377.3541" style="stroke:#000000;stroke-width:1.5;" width="575.3903" x="217.731" y="159.4799"/><text fill="#000000" font-family="sans-serif" font-size="13" font-weight="bold" lengthAdjust="spacing" textLength="17.459" x="232.731" y="174.377">alt</text><g class="message" data-participant-1="System" data-participant-2="System"><line style="stroke:#181818;stroke-width:1;" x1="263.5169" x2="305.5169" y1="202.892" y2="202.892"/><line style="stroke:#181818;stroke-width:1;" x1="305.5169" x2="305.5169" y1="202.892" y2="215.892"/><line style="stroke:#181818;stroke-width:1;" x1="264.5169" x2="305.5169" y1="215.892" y2="215.892"/><polygon fill="#181818" points="274.5169,211.892,264.5169,215.892,274.5169,219.892,270.5169,215.892" style="stroke:#181818;stroke-width:1;"/><text fill="#000000" font-family="sans-serif" font-size="13" lengthAdjust="spacing" textLength="468.4814" x="270.5169" y="197.083">Option1 - Display existing paths (Can display a specific path with more detail)</text></g><g class="message" data-participant-1="System" data-participant-2="System"><line style="stroke:#181818;stroke-width:1;" x1="263.5169" x2="305.5169" y1="247.598" y2="247.598"/><line style="stroke:#181818;stroke-width:1;" x1="305.5169" x2="305.5169" y1="247.598" y2="260.598"/><line style="stroke:#181818;stroke-width:1;" x1="264.5169" x2="305.5169" y1="260.598" y2="260.598"/><polygon fill="#181818" points="274.5169,256.598,264.5169,260.598,274.5169,264.598,270.5169,260.598" style="stroke:#181818;stroke-width:1;"/><text fill="#000000" font-family="sans-serif" font-size="13" lengthAdjust="spacing" textLength="481.7544" x="270.5169" y="241.789">Option2 - Display existing Routes (Can display a specific route with more detail)</text></g><g class="message" data-participant-1="System" data-participant-2="System"><line style="stroke:#181818;stroke-width:1;" x1="263.5169" x2="305.5169" y1="292.304" y2="292.304"/><line style="stroke:#181818;stroke-width:1;" x1="305.5169" x2="305.5169" y1="292.304" y2="305.304"/><line style="stroke:#181818;stroke-width:1;" x1="264.5169" x2="305.5169" y1="305.304" y2="305.304"/><polygon fill="#181818" points="274.5169,301.304,264.5169,305.304,274.5169,309.304,270.5169,305.304" style="stroke:#181818;stroke-width:1;"/><text fill="#000000" font-family="sans-serif" font-size="13" lengthAdjust="spacing" textLength="500.6044" x="270.5169" y="286.495">Option3 - Display existing Freights  (Can display a specific freight with more detail)</text></g><g class="message" data-participant-1="System" data-participant-2="System"><line style="stroke:#181818;stroke-width:1;" x1="263.5169" x2="305.5169" y1="337.01" y2="337.01"/><line style="stroke:#181818;stroke-width:1;" x1="305.5169" x2="305.5169" y1="337.01" y2="350.01"/><line style="stroke:#181818;stroke-width:1;" x1="264.5169" x2="305.5169" y1="350.01" y2="350.01"/><polygon fill="#181818" points="274.5169,346.01,264.5169,350.01,274.5169,354.01,270.5169,350.01" style="stroke:#181818;stroke-width:1;"/><text fill="#000000" font-family="sans-serif" font-size="13" lengthAdjust="spacing" textLength="131.9761" x="270.5169" y="331.201">Option4 - Create Path</text></g><g class="message" data-participant-1="System" data-participant-2="System"><line style="stroke:#181818;stroke-width:1;" x1="263.5169" x2="305.5169" y1="381.716" y2="381.716"/><line style="stroke:#181818;stroke-width:1;" x1="305.5169" x2="305.5169" y1="381.716" y2="394.716"/><line style="stroke:#181818;stroke-width:1;" x1="264.5169" x2="305.5169" y1="394.716" y2="394.716"/><polygon fill="#181818" points="274.5169,390.716,264.5169,394.716,274.5169,398.716,270.5169,394.716" style="stroke:#181818;stroke-width:1;"/><text fill="#000000" font-family="sans-serif" font-size="13" lengthAdjust="spacing" textLength="140.1011" x="270.5169" y="375.907">Option5 - Create Route</text></g><g class="message" data-participant-1="System" data-participant-2="System"><line style="stroke:#181818;stroke-width:1;" x1="263.5169" x2="305.5169" y1="426.4221" y2="426.4221"/><line style="stroke:#181818;stroke-width:1;" x1="305.5169" x2="305.5169" y1="426.4221" y2="439.4221"/><line style="stroke:#181818;stroke-width:1;" x1="264.5169" x2="305.5169" y1="439.4221" y2="439.4221"/><polygon fill="#181818" points="274.5169,435.4221,264.5169,439.4221,274.5169,443.4221,270.5169,439.4221" style="stroke:#181818;stroke-width:1;"/><text fill="#000000" font-family="sans-serif" font-size="13" lengthAdjust="spacing" textLength="147.6151" x="270.5169" y="420.6131">Option6 - Create Freight</text></g><g class="message" data-participant-1="System" data-participant-2="System"><line style="stroke:#181818;stroke-width:1;" x1="263.5169" x2="305.5169" y1="471.1281" y2="471.1281"/><line style="stroke:#181818;stroke-width:1;" x1="305.5169" x2="305.5169" y1="471.1281" y2="484.1281"/><line style="stroke:#181818;stroke-width:1;" x1="264.5169" x2="305.5169" y1="484.1281" y2="484.1281"/><polygon fill="#181818" points="274.5169,480.1281,264.5169,484.1281,274.5169,488.1281,270.5169,484.1281" style="stroke:#181818;stroke-width:1;"/><text fill="#000000" font-family="sans-serif" font-size="13" lengthAdjust="spacing" textLength="213.5252" x="270.5169" y="465.3191">Option7 - Assign Freight to a Route</text></g><g class="message" data-participant-1="System" data-participant-2="System"><line style="stroke:#181818;stroke-width:1;" x1="263.5169" x2="305.5169" y1="515.8341" y2="515.8341"/><line style="stroke:#181818;stroke-width:1;" x1="305.5169" x2="305.5169" y1="515.8341" y2="528.8341"/><line style="stroke:#181818;stroke-width:1;" x1="264.5169" x2="305.5169" y1="528.8341" y2="528.8341"/><polygon fill="#181818" points="274.5169,524.8341,264.5169,528.8341,274.5169,532.8341,270.5169,528.8341" style="stroke:#181818;stroke-width:1;"/><text fill="#000000" font-family="sans-serif" font-size="13" lengthAdjust="spacing" textLength="197.8862" x="270.5169" y="510.0251">Option8 - Assign Path to a Route</text></g><g class="message" data-participant-1="System" data-participant-2="FreightManager"><polygon fill="#181818" points="92.1088,563.5401,82.1088,567.5401,92.1088,571.5401,88.1088,567.5401" style="stroke:#181818;stroke-width:1;"/><line style="stroke:#181818;stroke-width:1;" x1="86.1088" x2="257.5169" y1="567.5401" y2="567.5401"/><text fill="#000000" font-family="sans-serif" font-size="13" lengthAdjust="spacing" textLength="148.4081" x="98.1088" y="561.7311">Display menu of options</text></g><g class="message" data-participant-1="FreightManager" data-participant-2="System"><polygon fill="#181818" points="241.5169,595.2461,251.5169,599.2461,241.5169,603.2461,245.5169,599.2461" style="stroke:#181818;stroke-width:1;"/><line style="stroke:#181818;stroke-width:1;" x1="81.1088" x2="247.5169" y1="599.2461" y2="599.2461"/><text fill="#000000" font-family="sans-serif" font-size="13" lengthAdjust="spacing" textLength="105.8851" x="88.1088" y="593.4371">Select one option</text></g><g class="message" data-participant-1="System" data-participant-2="System"><line style="stroke:#181818;stroke-width:1;" x1="263.5169" x2="305.5169" y1="630.9521" y2="630.9521"/><line style="stroke:#181818;stroke-width:1;" x1="305.5169" x2="305.5169" y1="630.9521" y2="643.9521"/><line style="stroke:#181818;stroke-width:1;" x1="264.5169" x2="305.5169" y1="643.9521" y2="643.9521"/><polygon fill="#181818" points="274.5169,639.9521,264.5169,643.9521,274.5169,647.9521,270.5169,643.9521" style="stroke:#181818;stroke-width:1;"/><text fill="#000000" font-family="sans-serif" font-size="13" lengthAdjust="spacing" textLength="137.5401" x="270.5169" y="625.1431">Execute wanted action</text></g><g class="message" data-participant-1="System" data-participant-2="FreightManager"><polygon fill="#181818" points="92.1088,671.6582,82.1088,675.6582,92.1088,679.6582,88.1088,675.6582" style="stroke:#181818;stroke-width:1;"/><line style="stroke:#181818;stroke-width:1;" x1="86.1088" x2="257.5169" y1="675.6582" y2="675.6582"/><text fill="#000000" font-family="sans-serif" font-size="13" lengthAdjust="spacing" textLength="129.1161" x="98.1088" y="669.8492">Return/Display result</text></g><!--SRC=[bLFBQiCm4BphAvQSsaCeVPT02YLjJoqjoHS8U-CiE2iZhTlaxolBogDEB18VPD3ExEmi8vs9iV1kaOg5V6hM1LgbT2RqemKF2gKn5TGiL09nLGkCnp305Sb0gVzO63x3REq4bp223rCGA_3VjdDRQ-zA2Vy8toT-LKA6hs48h-IgKg_1YpaXBg3Iid1mCT4CUQnfS1LcDASiLE6N_B4q5Y57qLHUfcLkZibCJItOhsERyhb2jyU4uleSz6hDMyIvQdTURMAnMVgttqeQVBy31-TfzCCE7STFunyz_iKvAdY31p7UuWbIJpjgusAV5uZ8kUfqw0HojDtv4ha6CmSJEhj0ox4RpKIUPrXY9c0OOu_UR1_nyxR2B8H6is0UMB51OlGfIctvQkF0eglZgpaSN3Mx-0C0]--></g></svg>